<?xml version="1.0" standalone="no"?>
<!DOCTYPE svg PUBLIC "-//W3C//DTD SVG 20010904//EN"
 "http://www.w3.org/TR/2001/REC-SVG-20010904/DTD/svg10.dtd">
<svg version="1.0" xmlns="http://www.w3.org/2000/svg"
 width="585.000000pt" height="585.000000pt" viewBox="0 0 585.000000 585.000000"
 preserveAspectRatio="xMidYMid meet">
<metadata>
Created by potrace 1.11, written by Peter Selinger 2001-2013
</metadata>
<g transform="translate(0.000000,585.000000) scale(0.100000,-0.100000)"
fill="#000000" stroke="none">
<path d="M0 2655 l0 -2595 2595 0 2595 0 0 250 0 250 -2285 0 -2285 0 0 2345
0 2345 -310 0 -310 0 0 -2595z"/>
<path d="M2164 4606 c-162 -31 -259 -81 -370 -191 -69 -67 -89 -95 -127 -175
-81 -169 -96 -278 -96 -665 0 -380 18 -514 94 -670 80 -165 235 -290 425 -342
93 -26 377 -26 470 0 89 24 195 76 257 125 142 113 233 337 233 573 l0 79
-190 0 -190 0 0 -39 c0 -71 -21 -195 -41 -242 -24 -55 -77 -108 -139 -141 -40
-20 -59 -23 -170 -23 -111 0 -130 3 -167 23 -98 52 -159 142 -182 266 -15 80
-15 708 0 778 27 128 105 235 207 281 37 17 67 22 142 22 87 0 101 -3 160 -32
113 -56 170 -157 185 -331 l8 -82 190 0 190 0 -6 113 c-7 138 -34 243 -88 347
-79 152 -225 264 -406 311 -102 26 -292 34 -389 15z"/>
<path d="M3330 3426 l0 -186 95 0 95 0 0 -630 0 -630 -95 0 -95 0 0 -186 0
-185 468 3 467 4 90 28 c123 37 179 69 256 146 74 74 116 150 151 275 22 77
22 96 23 535 0 440 -1 458 -23 544 -61 239 -197 373 -442 437 -80 21 -111 22
-537 26 l-453 5 0 -186z m903 -212 c60 -25 108 -70 138 -131 l24 -48 0 -420 0
-420 -27 -57 c-58 -125 -157 -168 -389 -168 l-79 0 0 636 0 636 143 -4 c111
-4 153 -9 190 -24z"/>
</g>
</svg>
