<?xml version="1.0" encoding="UTF-8"?>
<svg width="30px" height="26px" viewBox="0 0 30 26" version="1.1" xmlns="http://www.w3.org/2000/svg" xmlns:xlink="http://www.w3.org/1999/xlink">
    <!-- Generator: Sketch 59.1 (86144) - https://sketch.com -->
    <title>icons8-about</title>
    <desc>Created with Sketch.</desc>
    <g id="Symbols" stroke="none" stroke-width="1" fill="none" fill-rule="evenodd">
        <g id="nav" transform="translate(-912.000000, -6.000000)" fill="#000000" fill-rule="nonzero">
            <g id="Group-14">
                <g id="Group-3" transform="translate(912.000000, 3.000000)">
                    <g id="icons8-about" transform="translate(0.000000, 3.000000)">
                        <path d="M14.8055556,0 C10.7412782,0 7.054957,1.27411736 4.37071411,3.3543835 C1.68647086,5.43465 0,8.33835347 0,11.5555556 C0,14.7490474 1.67667644,17.6233413 4.32698572,19.7010092 C4.32575794,22.0903006 4.28717575,24.0910796 2.99468325,25.3835721 C2.89146629,25.486861 2.86060517,25.6421428 2.91648226,25.7770505 C2.97235935,25.9119582 3.10397831,26 3.25,26 C5.68433594,26 8.71688639,25.268806 10.6809896,22.6442056 C11.9925076,22.9405063 13.3725569,23.1111111 14.8055556,23.1111111 C18.8698329,23.1111111 22.5561541,21.8369938 25.240397,19.7567276 C27.9246402,17.6764608 29.6111111,14.7727576 29.6111111,11.5555556 C29.6111111,8.33835347 27.9246402,5.43465 25.240397,3.3543835 C22.5561541,1.27411736 18.8698329,0 14.8055556,0 Z M14.8055556,0.722222222 C18.7185837,0.722222222 22.2545241,1.95365733 24.7981771,3.92496758 C27.34183,5.89627747 28.8888889,8.59017431 28.8888889,11.5555556 C28.8888889,14.5209368 27.34183,17.2148336 24.7981771,19.1861435 C22.2545241,21.1574538 18.7185837,22.3888889 14.8055556,22.3888889 C13.3477818,22.3888889 11.9424247,22.218434 10.6210394,21.9022353 C10.4771698,21.8677317 10.3268066,21.9244672 10.2415907,22.0454101 C8.63361561,24.3350673 6.16866864,25.0860039 3.97363272,25.2192384 C5.00721253,23.6960122 5.05555556,21.7110833 5.05555556,19.5782878 L5.05555556,19.5507813 C5.05544325,19.4381111 5.00275341,19.3319488 4.91308603,19.2637261 C2.31046111,17.2860123 0.722222222,14.5591749 0.722222222,11.5555556 C0.722222222,8.59017431 2.26928108,5.89627747 4.81293403,3.92496758 C7.35658697,1.95365733 10.8925274,0.722222222 14.8055556,0.722222222 Z M14.8055556,1.80555556 C11.2340843,1.80555556 7.99305036,2.88868811 5.63671875,4.64789506 C3.28038714,6.40710164 1.80555556,8.85222506 1.80555556,11.5555556 C1.80555556,13.5344343 2.59636036,15.3778867 3.94401042,16.9108615 C3.98659318,16.9593726 4.05182253,16.9814796 4.11512513,16.9688543 C4.17842774,16.9562291 4.23018547,16.9107898 4.25090005,16.8496546 C4.27161464,16.7885193 4.25813873,16.7209768 4.215549,16.6724718 C2.91625461,15.1945022 2.16666667,13.438399 2.16666667,11.5555556 C2.16666667,8.98341383 3.56660669,6.64371356 5.85253897,4.93706597 C8.13847125,3.23041839 11.3071934,2.16666667 14.8055556,2.16666667 C18.237444,2.16666667 21.3516135,3.19034011 23.6266817,4.84044058 C23.678736,4.8805258 23.7484545,4.88917529 23.8087261,4.86302556 C23.8689976,4.83687582 23.9103103,4.78005374 23.916599,4.71465555 C23.9228876,4.64925737 23.8931598,4.58560406 23.8389757,4.54844831 C21.4947106,2.84815989 18.3091671,1.80555556 14.8055556,1.80555556 Z M14.625,4.33333333 C13.5399976,4.33333333 12.6388889,5.1330045 12.6388889,6.13888889 C12.6388889,7.14477328 13.5399976,7.94444444 14.625,7.94444444 C15.7100024,7.94444444 16.6111111,7.14477328 16.6111111,6.13888889 C16.6111111,5.1330045 15.7100024,4.33333333 14.625,4.33333333 Z M14.625,4.69444444 C15.5343594,4.69444444 16.25,5.34984775 16.25,6.13888889 C16.25,6.92793003 15.5343594,7.58333333 14.625,7.58333333 C13.7156406,7.58333333 13,6.92793003 13,6.13888889 C13,5.34984775 13.7156406,4.69444444 14.625,4.69444444 Z M24.375,5.01252857 C24.2984983,5.01203534 24.2299858,5.05980039 24.2039941,5.1317531 C24.1780024,5.20370582 24.2001731,5.2842286 24.2593318,5.3327365 C24.3451195,5.40464167 24.4292891,5.47769589 24.5118272,5.55137808 C24.5599542,5.59434548 24.6273489,5.60837209 24.6886223,5.58817381 C24.7498958,5.56797553 24.7957382,5.51662125 24.8088799,5.45345715 C24.8220216,5.39029305 24.8004658,5.32491616 24.7523329,5.28195525 C24.6665933,5.20541522 24.5789361,5.13024453 24.4906682,5.05626081 C24.4584602,5.02852578 24.4175009,5.01304111 24.375,5.01252857 L24.375,5.01252857 Z M25.1987847,5.77566203 C25.1252595,5.77453348 25.0583937,5.81810254 25.0297268,5.88581841 C25.0010599,5.95353428 25.0163184,6.03186994 25.0683052,6.08387578 C25.1811834,6.20030378 25.2899707,6.31852036 25.3955621,6.43863928 C25.4613936,6.51361405 25.5755382,6.52103014 25.6505177,6.45520399 C25.7254972,6.38937784 25.7329215,6.27523384 25.6671007,6.20024961 C25.5574695,6.07553519 25.4439369,5.95325178 25.3271485,5.83279089 C25.2938275,5.79719977 25.2475305,5.77659507 25.1987847,5.77566203 L25.1987847,5.77566203 Z M25.9605035,6.67843981 C25.8935027,6.68265633 25.8343719,6.72369447 25.8069829,6.78498659 C25.7795939,6.8462787 25.7884685,6.91770576 25.8300239,6.97043172 C26.8608015,8.33122839 27.4444444,9.89349581 27.4444444,11.5555556 C27.4444444,14.1276973 26.0445044,16.4673976 23.7585721,18.1740451 C21.4726399,19.8806927 18.3039177,20.9444444 14.8055556,20.9444444 C14.3834661,20.9444444 13.9665998,20.9289636 13.5550671,20.8986003 C13.455577,20.8912547 13.3689569,20.9659236 13.3615588,21.0654098 C13.3541607,21.164896 13.4287839,21.2515556 13.5282662,21.2590062 C13.9487342,21.2900303 14.3747005,21.3055556 14.8055556,21.3055556 C18.3770268,21.3055556 21.6180607,20.222423 23.9743924,18.4632161 C26.330724,16.7040095 27.8055556,14.2588861 27.8055556,11.5555556 C27.8055556,9.80872642 27.1893953,8.16649383 26.1177843,6.7517905 C26.0850915,6.70741668 26.0339228,6.68040377 25.9788411,6.67843981 C25.9727325,6.67820688 25.9666121,6.67820688 25.9605035,6.67843981 Z M12.0972222,8.66666667 C11.9975083,8.66666667 11.9166766,8.74750827 11.9166667,8.84722222 L11.9166667,10.2916667 C11.9166766,10.3913806 11.9975083,10.4722123 12.0972222,10.4722222 L13.1805556,10.4722222 C13.2821971,10.4722222 13.3611111,10.5511362 13.3611111,10.6527778 L13.3611111,16.0694444 C13.3611111,16.171086 13.2821971,16.25 13.1805556,16.25 L11.7361111,16.25 C11.6363972,16.25001 11.5555556,16.3308416 11.5555556,16.4305556 L11.5555556,17.875 C11.5555556,17.9747139 11.6363972,18.0555556 11.7361111,18.0555556 L18.2361111,18.0555556 C18.3358251,18.0555556 18.4166667,17.9747139 18.4166667,17.875 L18.4166667,16.4305556 C18.4166667,16.3308416 18.3358251,16.25001 18.2361111,16.25 L16.7916667,16.25 C16.6900251,16.25 16.6111111,16.171086 16.6111111,16.0694444 L16.6111111,8.84722222 C16.6111011,8.74750827 16.5302695,8.66666667 16.4305556,8.66666667 L12.0972222,8.66666667 Z M12.2777778,9.02777778 L16.25,9.02777778 L16.25,16.0694444 C16.25,16.3664695 16.4946416,16.6111111 16.7916667,16.6111111 L18.0555556,16.6111111 L18.0555556,17.6944444 L11.9166667,17.6944444 L11.9166667,16.6111111 L13.1805556,16.6111111 C13.4775806,16.6111111 13.7222222,16.3664695 13.7222222,16.0694444 L13.7222222,10.6527778 C13.7222222,10.3557527 13.4775806,10.1111111 13.1805556,10.1111111 L12.2777778,10.1111111 L12.2777778,9.02777778 Z" id="Shape"></path>
                    </g>
                </g>
            </g>
        </g>
    </g>
</svg>