<?xml version="1.0" encoding="UTF-8"?>
<svg width="23px" height="26px" viewBox="0 0 23 26" version="1.1" xmlns="http://www.w3.org/2000/svg" xmlns:xlink="http://www.w3.org/1999/xlink">
    <!-- Generator: Sketch 59.1 (86144) - https://sketch.com -->
    <title>icons8-edit</title>
    <desc>Created with Sketch.</desc>
    <g id="Symbols" stroke="none" stroke-width="1" fill="none" fill-rule="evenodd">
        <g id="nav" transform="translate(-3.000000, -6.000000)" fill="#000000" fill-rule="nonzero">
            <g id="Group-14">
                <g id="Group" transform="translate(0.000000, 4.000000)">
                    <g id="icons8-edit" transform="translate(13.452246, 16.134854) rotate(39.000000) translate(-13.452246, -16.134854) translate(8.952246, 1.134854)">
                        <path d="M4.28571429,0 C2.92857129,0 1.895139,0.341074286 1.20117171,0.688058143 C0.507204429,1.03504157 0.125558143,1.41127243 0.125558143,1.41127243 C0.0451854468,1.49163455 -1.23675863e-06,1.60062903 -1.23675863e-06,1.71428571 L-1.23675863e-06,21.4285714 C-0.000139578314,21.4866766 0.0115366552,21.5442035 0.0343191429,21.5976561 L3.36328114,29.3646763 C3.530367,29.7541834 3.91652657,29.9723773 4.28571429,29.9723773 C4.654902,29.9723773 5.04135343,29.7535041 5.20814743,29.3638393 L8.53710943,21.5976561 C8.55989192,21.5442035 8.57156815,21.4866766 8.57142981,21.4285714 L8.57142981,1.71428571 C8.57142981,1.60062903 8.52624312,1.49163455 8.44587043,1.41127243 C8.44587043,1.41127243 8.06422414,1.03504157 7.37025686,0.688058143 C6.67628957,0.341074286 5.64285729,0 4.28571429,0 Z M4.28571429,0.857142857 C5.49999986,0.857142857 6.395139,1.15892571 6.986886,1.454799 C7.49150486,1.70710843 7.64742086,1.87184786 7.71428571,1.93443086 L7.71428571,4.28571429 L7.07142857,4.28571429 C6.99414945,4.28462137 6.92226828,4.32522328 6.88330977,4.39197275 C6.84435127,4.45872223 6.84435127,4.54127777 6.88330977,4.60802725 C6.92226828,4.67477672 6.99414945,4.71537863 7.07142857,4.71428571 L7.71428571,4.71428571 L7.71428571,5.57142857 L0.857142857,5.57142857 L0.857142857,4.71428571 L5.78571429,4.71428571 C5.86299341,4.71537863 5.93487458,4.67477672 5.97383308,4.60802725 C6.01279159,4.54127777 6.01279159,4.45872223 5.97383308,4.39197275 C5.93487458,4.32522328 5.86299341,4.28462137 5.78571429,4.28571429 L0.857142857,4.28571429 L0.857142857,1.93443086 C0.924007714,1.87184786 1.07992371,1.70710843 1.58454257,1.454799 C2.17628957,1.15892571 3.07142871,0.857142857 4.28571429,0.857142857 Z M0.857142857,6 L7.71428571,6 L7.71428571,7.28571429 L4.28571429,7.28571429 L0.857142857,7.28571429 L0.857142857,6 Z M0.857142857,8.14285714 L1.71428571,8.14285714 L1.71428571,19.9285714 C1.7131928,20.0058506 1.75379471,20.0777317 1.82054418,20.1166902 C1.88729366,20.1556487 1.9698492,20.1556487 2.03659868,20.1166902 C2.10334815,20.0777317 2.14395006,20.0058506 2.14285714,19.9285714 L2.14285714,8.14285714 L3,8.14285714 L3,21 L0.857142857,21 L0.857142857,8.14285714 Z M3.42857143,8.14285714 L4.28571429,8.14285714 L5.14285714,8.14285714 L5.14285714,9.64285714 C5.14176422,9.72013627 5.18236613,9.79201744 5.24911561,9.83097594 C5.31586509,9.86993445 5.39842063,9.86993445 5.4651701,9.83097594 C5.53191958,9.79201744 5.57252149,9.72013627 5.57142857,9.64285714 L5.57142857,8.14285714 L6.42857143,8.14285714 L6.42857143,16.5 C6.42747851,16.5772791 6.46808042,16.6491603 6.5348299,16.6881188 C6.60157937,16.7270773 6.68413491,16.7270773 6.75088439,16.6881188 C6.81763387,16.6491603 6.85823578,16.5772791 6.85714286,16.5 L6.85714286,8.14285714 L7.71428571,8.14285714 L7.71428571,21 L6.85714286,21 L6.85714286,19.5 C6.85805027,19.4420065 6.83541257,19.3861218 6.79439998,19.3451092 C6.75338738,19.3040966 6.69750261,19.2814589 6.63950914,19.2823663 C6.58267663,19.283253 6.52852422,19.3066806 6.48896546,19.3474951 C6.4494067,19.3883097 6.42768222,19.4431675 6.42857143,19.5 L6.42857143,21 L5.57142857,21 L5.57142857,10.9285714 C5.57233598,10.870578 5.54969828,10.8146932 5.50868569,10.7736806 C5.4676731,10.732668 5.41178832,10.7100303 5.35379486,10.7109377 C5.29696235,10.7118244 5.24280994,10.7352521 5.20325118,10.7760666 C5.16369241,10.8168811 5.14196794,10.871739 5.14285714,10.9285714 L5.14285714,21 L4.28571429,21 L3.42857143,21 L3.42857143,8.14285714 Z M6.63950914,17.5680806 C6.58267663,17.5689673 6.52852422,17.5923949 6.48896546,17.6332094 C6.4494067,17.6740239 6.42768222,17.7288818 6.42857143,17.7857143 L6.42857143,18.2142857 C6.42747851,18.2915648 6.46808042,18.363446 6.5348299,18.4024045 C6.60157937,18.441363 6.68413491,18.441363 6.75088439,18.4024045 C6.81763387,18.363446 6.85823578,18.2915648 6.85714286,18.2142857 L6.85714286,17.7857143 C6.85805027,17.7277208 6.83541257,17.671836 6.79439998,17.6308235 C6.75338738,17.5898109 6.69750261,17.5671732 6.63950914,17.5680806 L6.63950914,17.5680806 Z M1.078125,21.8571429 L4.28571429,21.8571429 L7.49330357,21.8571429 L5.47265614,26.5714286 L3.09877243,26.5714286 L1.078125,21.8571429 Z M3.282087,27 L5.28934157,27 L4.42047986,29.0265069 C4.38841671,29.1014134 4.34541943,29.1152344 4.28571429,29.1152344 C4.22600914,29.1152344 4.18314857,29.1015716 4.15094871,29.0265069 L3.282087,27 Z" id="Shape"></path>
                    </g>
                </g>
            </g>
        </g>
    </g>
</svg>