<?xml version="1.0" encoding="UTF-8"?>
<svg width="23px" height="30px" viewBox="0 0 23 30" version="1.1" xmlns="http://www.w3.org/2000/svg" xmlns:xlink="http://www.w3.org/1999/xlink">
    <!-- Generator: Sketch 59.1 (86144) - https://sketch.com -->
    <title>icons8-mailbox</title>
    <desc>Created with Sketch.</desc>
    <g id="Symbols" stroke="none" stroke-width="1" fill="none" fill-rule="evenodd">
        <g id="nav" transform="translate(-1163.000000, -3.000000)" fill="#000000" fill-rule="nonzero">
            <g id="Group-14">
                <g id="Group-4" transform="translate(1163.000000, 3.000000)">
                    <g id="icons8-mailbox">
                        <path d="M11.3135956,0.357278963 C6.18322976,0.357278963 1.62547061,2.70373866 0.229373049,6.06373866 C0.197909634,6.13947037 0.192050488,6.22409122 0.214367561,6.30311561 L1.20117183,9.83517512 C1.24544012,9.9932239 1.38918073,10.1024199 1.55344902,10.1024199 L3.039015,10.1024199 L3.039015,25.1395771 C2.20519793,25.3096401 1.57560037,26.0483839 1.57560037,26.9316882 L1.57560037,29.4926638 C1.57560037,29.694615 1.7395028,29.8585174 1.94145402,29.8585174 L20.5999906,29.8585174 C20.8019418,29.8585174 20.9658443,29.694615 20.9658443,29.4926638 L20.9658443,26.9316882 C20.9658443,26.048381 20.3362504,25.3096368 19.5024296,25.1395771 L19.5024296,10.1024199 L21.0737422,10.1024199 C21.237645,10.1024199 21.382117,9.99322427 21.4260194,9.83517512 L22.412824,6.30311561 C22.4347752,6.22409122 22.4299961,6.13947037 22.3985327,6.06373866 C21.002801,2.70373866 16.4443273,0.357278963 11.3135956,0.357278963 Z M11.3135956,1.0889861 C16.0967663,1.0889861 20.3309393,3.19693793 21.6732563,6.23023061 L20.7964939,9.37071256 L1.83141183,9.37071256 L1.01395756,6.44388329 L18.2219418,6.44388329 C18.3229174,6.44388329 18.4048687,6.36193207 18.4048687,6.26095646 C18.4048687,6.15998085 18.3229174,6.07802963 18.2219418,6.07802963 L1.03182146,6.07802963 C2.44787378,3.12781207 6.6123439,1.0889861 11.3135956,1.0889861 Z M19.3195028,6.07802963 C19.2185272,6.07802963 19.136576,6.15998085 19.136576,6.26095646 C19.136576,6.36193207 19.2185272,6.44388329 19.3195028,6.44388329 L20.0512101,6.44388329 C20.1521857,6.44388329 20.234137,6.36193207 20.234137,6.26095646 C20.234137,6.15998085 20.1521857,6.07802963 20.0512101,6.07802963 L19.3195028,6.07802963 Z M3.77072232,10.1024199 L18.7707223,10.1024199 L18.7707223,25.1024199 L3.77072232,25.1024199 L3.77072232,10.1024199 Z M5.70288695,12.6633955 C5.44459427,12.6633955 5.23413695,12.8738528 5.23413695,13.1321455 L5.23413695,14.0239138 C5.23413695,14.2822065 5.44459427,14.4926638 5.70288695,14.4926638 L16.8385577,14.4926638 C17.0968504,14.4926638 17.3073077,14.2822065 17.3073077,14.0239138 L17.3073077,13.1321455 C17.3073077,12.8738528 17.0968504,12.6633955 16.8385577,12.6633955 L5.70288695,12.6633955 Z M5.70288695,13.0292491 L16.8385577,13.0292491 C16.895265,13.0292491 16.941454,13.0754382 16.941454,13.1321455 L16.941454,14.0239138 C16.941454,14.0806211 16.895265,14.1268101 16.8385577,14.1268101 L5.70288695,14.1268101 C5.64617963,14.1268101 5.59999061,14.0806211 5.59999061,14.0239138 L5.59999061,13.1321455 C5.59999061,13.0754382 5.64617963,13.0292491 5.70288695,13.0292491 Z M6.88047841,17.0536394 C6.7795028,17.0536394 6.69755159,17.1355906 6.69755159,17.2365662 L6.69755159,21.6268101 C6.69755159,21.7277857 6.7795028,21.809737 6.88047841,21.809737 L15.5673589,21.809737 C15.5685684,21.8097607 15.5697223,21.8104515 15.5709318,21.8104515 C15.5721465,21.8104515 15.5732905,21.8097615 15.5745044,21.809737 L15.6609662,21.809737 C15.7619418,21.809737 15.843893,21.7281516 15.843893,21.6268101 L15.843893,17.2365662 C15.843893,17.1355906 15.7619418,17.0536394 15.6609662,17.0536394 L6.88047841,17.0536394 Z M7.72079854,17.419493 L14.8049257,17.419493 L11.262862,19.2487613 L7.72079854,17.419493 Z M15.4780394,17.4838032 L15.4780394,21.3045446 L12.7119856,18.9122045 L15.4780394,17.4838032 Z M7.06340524,17.4916635 L9.87733427,18.9450743 L7.06340524,21.3802877 L7.06340524,17.4916635 Z M12.3790017,19.0844129 C12.389565,19.1078104 12.4047274,19.1300641 12.4254479,19.1480089 L15.0800305,21.4438833 L7.54787524,21.4438833 L10.2024582,19.1472944 C10.2105417,19.1402934 10.2144816,19.130992 10.2210366,19.1229991 L11.1785444,19.6174734 C11.20452,19.63101 11.233245,19.6381954 11.2621474,19.6381954 C11.290684,19.6381954 11.3201067,19.63101 11.3471799,19.6174734 L12.3790017,19.0844129 Z M3.40486866,25.8341272 L19.136576,25.8341272 C19.7416979,25.8341272 20.234137,26.3265662 20.234137,26.9316882 L20.234137,29.1268101 L2.30730768,29.1268101 L2.30730768,26.9316882 C2.30730768,26.8900752 2.3149211,26.8506373 2.31945512,26.8102134 C2.34482707,26.8807877 2.41095878,26.9316882 2.49023451,26.9316882 L16.0268199,26.9316882 C16.1277955,26.9316882 16.2097467,26.849737 16.2097467,26.7487613 C16.2097467,26.6477857 16.1277955,26.5658345 16.0268199,26.5658345 L2.49023451,26.5658345 C2.43641415,26.5658345 2.38938,26.5902516 2.35589744,26.6272866 C2.48894671,26.1709028 2.90614829,25.8341272 3.40486866,25.8341272 Z M17.4902345,26.5658345 C17.3892589,26.5658345 17.3073077,26.6477857 17.3073077,26.7487613 C17.3073077,26.849737 17.3892589,26.9316882 17.4902345,26.9316882 L18.9536491,26.9316882 C19.0546248,26.9316882 19.136576,26.849737 19.136576,26.7487613 C19.136576,26.6477857 19.0546248,26.5658345 18.9536491,26.5658345 L17.4902345,26.5658345 Z" id="Shape"></path>
                    </g>
                </g>
            </g>
        </g>
    </g>
</svg>