<?xml version="1.0" encoding="UTF-8"?>
<svg width="22px" height="30px" viewBox="0 0 22 30" version="1.1" xmlns="http://www.w3.org/2000/svg" xmlns:xlink="http://www.w3.org/1999/xlink">
    <!-- Generator: Sketch 59.1 (86144) - https://sketch.com -->
    <title>icons8-bookmark</title>
    <desc>Created with Sketch.</desc>
    <g id="Symbols" stroke="none" stroke-width="1" fill="none" fill-rule="evenodd">
        <g id="nav" transform="translate(-285.000000, -4.000000)" fill="#000000" fill-rule="nonzero">
            <g id="Group-14">
                <g id="Group-2" transform="translate(285.000000, 4.000000)">
                    <g id="icons8-bookmark" transform="translate(-0.000000, 0.000000)">
                        <path d="M3.54166667,-1.77635684e-15 C3.42661211,-1.77635684e-15 3.33334484,0.0932787758 3.33333333,0.208333333 L3.33333333,0.833333333 L2.5,0.833333333 C1.12432292,0.833333333 0,1.95765625 0,3.33333333 L0,27.7083333 C0,28.9689904 1.03100958,30 2.29166667,30 L21.25,30 C21.4531645,30.0003309 21.626955,29.8541019 21.6613662,29.6538726 C21.6957774,29.4536433 21.5807781,29.2577832 21.38916,29.1902671 C20.8579771,29.0024687 20.4166667,28.347055 20.4166667,27.7083333 C20.4166667,27.0696117 20.8579771,26.4141979 21.38916,26.2263996 C21.565912,26.1642483 21.6794519,25.9917745 21.6666667,25.8048504 L21.6666667,4.58333333 C21.6666667,2.517285 19.982715,0.833333333 17.9166667,0.833333333 L10.4166667,0.833333333 L10.4166667,0.208333333 C10.4166552,0.0932787758 10.3233879,-1.77635684e-15 10.2083333,-1.77635684e-15 L3.54166667,-1.77635684e-15 Z M3.75,0.416666667 L10,0.416666667 L10,12.7880858 L6.99707042,11.2866212 C6.96069595,11.2601474 6.91672968,11.2461582 6.871745,11.246745 C6.82861799,11.247598 6.78681881,11.2618153 6.75211583,11.287435 L3.75,12.7880858 L3.75,0.416666667 Z M2.5,1.66666667 L3.33333333,1.66666667 L3.33333333,13.125 C3.33340575,13.1970889 3.3707374,13.2640185 3.43203561,13.3019571 C3.49333382,13.3398958 3.56988818,13.3434525 3.63444,13.3113608 L6.66666667,11.7952475 L6.66666667,19.375 C6.66560411,19.4501325 6.70507819,19.520017 6.76997351,19.5578933 C6.83486883,19.5957696 6.91513117,19.5957696 6.98002649,19.5578933 C7.04492181,19.520017 7.08439589,19.4501325 7.08333333,19.375 L7.08333333,11.7952475 L10.11556,13.3113608 C10.1801118,13.3434525 10.2566662,13.3398958 10.3179644,13.3019571 C10.3792626,13.2640185 10.4165943,13.1970889 10.4166667,13.125 L10.4166667,1.66666667 L17.9166667,1.66666667 C19.532285,1.66666667 20.8333333,2.967715 20.8333333,4.58333333 L20.8333333,25.4166667 L2.29166667,25.4166667 C1.73889458,25.4166667 1.23024167,25.6151158 0.833333333,25.9440104 L0.833333333,3.33333333 C0.833333333,2.40817708 1.57484375,1.66666667 2.5,1.66666667 Z M6.871745,20.4134117 C6.81649117,20.4142737 6.763843,20.4370506 6.72538309,20.4767314 C6.68692318,20.5164122 6.66580216,20.5697462 6.66666667,20.625 L6.66666667,21.4583333 C6.66560411,21.5334658 6.70507819,21.6033503 6.76997351,21.6412266 C6.83486883,21.6791029 6.91513117,21.6791029 6.98002649,21.6412266 C7.04492181,21.6033503 7.08439589,21.5334658 7.08333333,21.4583333 L7.08333333,20.625 C7.08421554,20.5686175 7.06220667,20.514285 7.02233331,20.4744117 C6.98245996,20.4345383 6.92812754,20.4125295 6.871745,20.4134117 L6.871745,20.4134117 Z M6.871745,22.0800783 C6.81649117,22.0809404 6.763843,22.1037173 6.72538309,22.1433981 C6.68692318,22.1830788 6.66580216,22.2364129 6.66666667,22.2916667 L6.66666667,22.7083333 C6.66560411,22.7834658 6.70507819,22.8533503 6.76997351,22.8912266 C6.83486883,22.9291029 6.91513117,22.9291029 6.98002649,22.8912266 C7.04492181,22.8533503 7.08439589,22.7834658 7.08333333,22.7083333 L7.08333333,22.2916667 C7.08421554,22.2352841 7.06220667,22.1809517 7.02233331,22.1410784 C6.98245996,22.101205 6.92812754,22.0791961 6.871745,22.0800783 L6.871745,22.0800783 Z M2.29166667,26.25 L20.0675454,26.25 C19.8871358,26.4991596 19.7560838,26.7831733 19.6744792,27.0833333 L3.125,27.0833333 C3.04986752,27.0822708 2.97998305,27.1217449 2.94210672,27.1866402 C2.9042304,27.2515355 2.9042304,27.3317978 2.94210672,27.3966932 C2.97998305,27.4615885 3.04986752,27.5010626 3.125,27.5 L19.6012371,27.5 C19.5950083,27.5693725 19.5833333,27.6380271 19.5833333,27.7083333 C19.5833333,27.7786396 19.5950083,27.8472942 19.6012371,27.9166667 L6.875,27.9166667 C6.79986752,27.9156041 6.72998305,27.9550782 6.69210672,28.0199735 C6.6542304,28.0848688 6.6542304,28.1651312 6.69210672,28.2300265 C6.72998305,28.2949218 6.79986752,28.3343959 6.875,28.3333333 L19.6744792,28.3333333 C19.7560838,28.6334933 19.8871358,28.9175071 20.0675454,29.1666667 L2.29166667,29.1666667 C1.48149042,29.1666667 0.833333333,28.5185096 0.833333333,27.7083333 C0.833333333,26.8981571 1.48149042,26.25 2.29166667,26.25 Z" id="Shape"></path>
                    </g>
                </g>
            </g>
        </g>
    </g>
</svg>